<?xml version="1.0" encoding="utf-8"?>
<svg width="512px" height="512px" viewbox="0 0 512 512" version="1.1" xmlns:xlink="http://www.w3.org/1999/xlink" xmlns="http://www.w3.org/2000/svg">
  <defs>
    <filter id="filter_1">
      <feColorMatrix in="SourceGraphic" type="matrix" values="0 0 0 0 1 0 0 0 0 1 0 0 0 0 1 0 0 0 1 0" />
    </filter>
    <filter id="filter_2">
      <feColorMatrix in="SourceGraphic" type="matrix" values="0 0 0 0 0 0 0 0 0 0 0 0 0 0 0 0 0 0 1 0" />
    </filter>
    <rect width="512" height="512" id="artboard_1" />
    <clipPath id="clip_1">
      <use xlink:href="#artboard_1" clip-rule="evenodd" />
    </clipPath>
  </defs>
  <g id="Artboard" clip-path="url(#clip_1)">
    <g id="noun_Fist_52729" transform="translate(64.10394 22.000092)" filter="url(#filter_1)">
      <path d="M336.502 52.3683C334.174 51.9575 331.799 51.7521 329.45 51.7521C321.713 51.7521 314.44 53.9641 308.241 57.7931C306.945 52.9266 304.828 48.255 301.852 44.0047C295.158 34.4456 285.146 28.0675 273.659 26.0398C271.131 25.5974 268.561 25.371 266.017 25.371C256.21 25.371 247.099 28.6416 239.741 34.198C234.353 18.5979 220.891 6.27373 203.511 3.20848C186.141 0.153764 169.262 7.13747 158.849 19.9725C158.559 19.5354 158.312 19.0772 158.012 18.6453C151.318 9.08617 141.3 2.70287 129.808 0.675175C118.316 -1.35252 106.724 1.22292 97.1544 7.91696C87.5953 14.611 81.212 24.6284 79.1895 36.1204C79.1895 36.1204 63.3629 126.166 63.2576 127.204L15.1406 175.315C-5.04686 195.503 -5.04686 228.362 15.1406 248.565C15.1406 248.565 83.9507 317.344 84.6564 317.965L84.6564 459.899C84.6564 464.771 88.6065 468.715 93.4677 468.715L301.22 468.715C306.076 468.715 310.026 464.771 310.026 459.899L310.026 324.823L314.487 320.362C347.467 287.371 360.36 239.57 348.826 194.576C351.97 189.962 354.209 184.648 355.236 178.839L369.282 99.1687C373.137 77.2379 358.433 56.2447 336.502 52.3683L336.502 52.3683ZM240.394 64.5398C242.591 52.0523 253.372 42.9935 266.017 42.9935C267.534 42.9935 269.077 43.1305 270.594 43.3991C277.446 44.6052 283.424 48.413 287.411 54.1169C291.413 59.8208 292.946 66.736 291.729 73.5986L276.208 161.596C273.996 174.062 263.231 183.115 250.596 183.115C249.079 183.115 247.536 182.979 246.019 182.71C239.162 181.504 233.189 177.691 229.197 171.992C225.205 166.288 223.667 159.373 224.878 152.516L240.394 64.5398L240.394 64.5398ZM166.476 44.3629C169.283 28.4362 184.514 17.7552 200.457 20.573C216.383 23.3801 227.064 38.6221 224.262 54.5488L207.288 150.772C205.734 159.594 200.235 167.068 192.546 171.318L151.36 130.127L166.476 44.3629L166.476 44.3629ZM96.5488 39.1804C97.7549 32.3283 101.563 26.3506 107.267 22.3531C112.976 18.3557 119.912 16.8283 126.748 18.0344C133.606 19.2405 139.583 23.0536 143.576 28.7575C147.573 34.4614 149.1 41.3714 147.894 48.2234L135.976 115.812C120.623 104.804 100.604 103.208 83.8823 111.024L96.5488 39.1804L96.5488 39.1804ZM302.02 307.901L294.974 314.942C293.325 316.596 292.403 318.834 292.403 321.178L292.403 451.088L102.284 451.088L102.284 313.773C102.284 311.013 100.994 308.406 98.7871 306.742C97.2702 305.594 27.6069 236.104 27.6069 236.104C14.2821 222.779 14.2821 201.101 27.6069 187.777L81.6807 133.703C94.995 120.388 116.678 120.383 130.003 133.703C130.003 133.703 201.304 204.946 203.127 206.716C210.421 213.784 217.958 221.099 218 225.897C218.016 228.004 216.483 230.616 213.439 233.666C188.97 258.13 159.792 238.211 110.311 200.896C106.44 197.973 100.91 198.737 97.9655 202.623C95.0371 206.51 95.8114 212.035 99.6982 214.969C131.541 238.985 162.162 262.085 190.086 262.08C191.513 262.08 192.92 262.001 194.331 261.88C203.169 286.781 200.509 314.563 186.768 337.468C184.256 341.645 185.615 347.054 189.791 349.561C191.213 350.409 192.767 350.814 194.315 350.814C197.302 350.814 200.23 349.292 201.873 346.537C218.158 319.398 221.439 286.544 211.264 256.961C216.251 254.406 221.149 250.893 225.905 246.132C232.499 239.528 235.67 232.865 235.622 225.766C235.522 213.594 225.753 204.109 215.403 194.07C213.639 192.364 205.323 184.1 205.323 184.1C207.851 182.331 210.142 180.282 212.264 178.07C213.023 179.45 213.839 180.798 214.756 182.104C221.45 191.669 231.472 198.052 242.959 200.074C245.482 200.522 248.052 200.748 250.596 200.748C261.53 200.748 271.61 196.688 279.342 189.909C280.221 191.658 281.201 193.37 282.339 195.002C288.527 203.845 297.802 209.744 308.414 211.614C310.747 212.03 313.128 212.235 315.477 212.235C321.992 212.235 328.175 210.655 333.679 207.874C339.957 244.147 328.412 281.509 302.02 307.901L302.02 307.901ZM351.923 96.114L337.871 175.784C335.954 186.692 326.532 194.607 315.482 194.607C314.155 194.607 312.807 194.492 311.485 194.26C305.486 193.201 300.267 189.873 296.775 184.89C293.283 179.908 291.95 173.867 293.004 167.879L307.055 88.1822C308.994 77.2906 318.4 69.3799 329.45 69.3799C330.777 69.3799 332.115 69.4958 333.437 69.7275C345.808 71.9132 354.093 83.7476 351.923 96.114L351.923 96.114Z" id="Shape" fill="#000000" fill-rule="evenodd" stroke="none" />
    </g>
    <g id="noun_Hand_734177" transform="translate(49.100006 8.768051)" filter="url(#filter_1)">
      <g id="Switch" filter="url(#filter_2)">
        <g id="Group">
          <g id="Group">
            <path d="M374.48 98.0457C367.476 98.0457 361.874 99.4464 356.271 102.248L356.271 81.2379C356.271 56.0261 335.261 35.0163 310.05 35.0163C303.046 35.0163 297.444 36.417 291.841 39.2183C289.04 16.8078 269.431 0 247.02 0C227.411 0 210.603 12.6059 205.001 29.4137C196.597 25.2118 189.593 23.8111 181.189 23.8111C155.978 23.8111 134.968 44.8209 134.968 70.0327L134.968 264.723C134.968 268.925 130.766 273.127 126.564 273.127C123.763 273.127 120.961 271.727 119.561 268.925L78.9418 208.697C71.9385 198.893 62.1339 193.29 50.9287 190.489C39.7235 187.688 28.5183 190.489 18.7137 197.492C8.90911 204.495 3.30649 214.3 0.505187 224.105C-0.895465 235.31 0.505187 246.515 6.1078 254.919L57.932 359.968C57.932 361.369 59.3327 361.369 59.3327 362.769L161.58 491.629C164.382 494.431 168.584 497.232 172.786 497.232L354.871 497.232C360.473 497.232 366.076 493.03 368.877 487.427C388.486 428.6 419.301 338.958 419.301 270.326L419.301 145.668C420.701 119.056 399.691 98.0457 374.48 98.0457L374.48 98.0457ZM392.688 268.925C392.688 329.154 364.675 413.193 346.467 467.818L179.789 467.818L81.7431 345.961L32.7203 242.313C32.7203 240.912 32.7203 240.912 31.3196 240.912C28.5183 238.111 28.5183 233.909 28.5183 229.707C28.5183 225.505 31.3196 222.704 34.1209 219.903C36.9222 218.502 41.1242 217.101 45.3261 217.101C49.5281 218.502 52.3294 219.903 55.1307 222.704L97.1503 282.932C104.154 292.737 115.359 298.339 126.564 298.339C146.173 298.339 162.981 281.531 162.981 261.922L162.981 70.0327C162.981 60.2281 171.385 51.8242 181.19 51.8242C190.994 51.8242 199.398 60.2281 199.398 70.0327L199.398 204.495C199.398 211.499 205.001 218.502 213.405 218.502C220.408 218.502 227.411 211.499 227.411 204.495L227.411 46.2215C227.411 36.417 235.815 28.0131 245.62 28.0131C255.424 28.0131 263.828 36.417 263.828 46.2216L263.828 218.502C263.828 225.505 270.831 232.508 277.835 232.508C284.838 232.508 291.841 225.505 291.841 218.502L291.841 81.2379C291.841 71.4333 300.245 63.0294 310.05 63.0294C319.854 63.0294 328.258 71.4333 328.258 81.2379L328.258 246.515C328.258 253.518 333.861 260.522 342.265 260.522C350.669 260.522 356.271 253.518 356.271 246.515L356.271 144.267C356.271 134.463 364.675 126.059 374.48 126.059C384.284 126.059 392.688 134.463 392.688 144.267L392.688 268.925L392.688 268.925Z" id="Shape" fill="#000000" fill-rule="evenodd" stroke="none" />
          </g>
        </g>
      </g>
    </g>
  </g>
</svg>